{"title":"Justice.League.Doom.2012.BRRip.XviD.Ac3.Feel-Free","uid":7036110,"size":966727541,"categoryP":"video","categoryS":"movies","magnet":"?xt=urn:btih:bd90874fde0630b50f5dac2565bb0ef511109e14&amp;dn=Justice.League.Doom.2012.BRRip.XviD.Ac3.Feel-Free&amp;tr=udp%3A%2F%2Ftracker.openbittorrent.com%3A80&amp;tr=udp%3A%2F%2Fopen.demonii.com%3A1337&amp;tr=udp%3A%2F%2Ftracker.coppersurfer.tk%3A6969&amp;tr=udp%3A%2F%2Fexodus.desync.com%3A6969","seeders":1,"leechers":0,"uploader":"car1015","files":9,"time":1329389173,"description":"Genre:Animation\nLanguage:English\nIMDb:http://www.imdb.com/title/tt2027128/\nSource:BluRay.x264.DTS-HDC Thanks!\nEncoder:Tony\n\nFormat : AVI\nFormat/Info : Audio Video Interleave\nFile size : 920 MiB\nDuration : 1h 16mn\nOverall bit rate : 1 674 Kbps\n\nVideo\nID : 0\nFormat : MPEG-4 Visual\nFormat profile : Advanced Simple@L5\nFormat settings, BVOP : 2\nFormat settings, QPel : No\nFormat settings, GMC : No warppoints\nFormat settings, Matrix : Default (H.263)\nMuxing mode : Packed bitstream\nCodec ID : XVID\nCodec ID/Hint : XviD\nDuration : 1h 16mn\nBit rate : 1 217 Kbps\nWidth : 720 pixels\nHeight : 400 pixels\nDisplay aspect ratio : 16:9\nFrame rate : 23.976 fps\nColor space : YUV\nChroma subsampling : 4:2:0\nBit depth : 8 bits\nScan type : Progressive\nCompression mode : Lossy\nBits/(Pixel*Frame) : 0.176\nStream size : 669 MiB (73%)\nWriting library : XviD 64\n\nAudio\nID : 1\nFormat : AC-3\nFormat/Info : Audio Coding 3\nMode extension : CM (complete main)\nCodec ID : 2000\nDuration : 1h 16mn\nBit rate mode : Constant\nBit rate : 448 Kbps\nChannel(s) : 6 channels\nChannel positions : Front: L C R, Side: L R, LFE\nSampling rate : 48.0 KHz\nBit depth : 16 bits\nCompression mode : Lossy\nStream size : 246 MiB (27%)\nAlignment : Aligned on interleaves\nInterleave, duration : 42 ms (1.00 video frame)\nInterleave, preload duration : 512 ms\n\n\nPlot:\nAn adaptation of Mark Waid's &quot;Tower of Babel&quot; story from the JLA comic. Ra's al Ghul steals confidential files Batman has compiled on the members of the Justice League, and learns all their weaknesses.","torrent":{"xt":"urn:btih:bd90874fde0630b50f5dac2565bb0ef511109e14","amp;dn":"Justice.League.Doom.2012.BRRip.XviD.Ac3.Feel-Free","amp;tr":["udp%3A%2F%2Ftracker.openbittorrent.com%3A80","udp%3A%2F%2Fopen.demonii.com%3A1337","udp%3A%2F%2Ftracker.coppersurfer.tk%3A6969","udp%3A%2F%2Fexodus.desync.com%3A6969"],"infoHash":"bd90874fde0630b50f5dac2565bb0ef511109e14","infoHashBuffer":{"type":"Buffer","data":[189,144,135,79,222,6,48,181,15,93,172,37,101,187,14,245,17,16,158,20]},"announce":[],"urlList":[]}}